<?xml version="1.0" encoding="UTF-8"?> <svg xmlns="http://www.w3.org/2000/svg" width="1028" height="473" viewBox="0 0 1028 473" fill="none"><path d="M154.64 471.966L118.118 312.382V471.966H0V0.871719H118.118V154.689L162.725 0.871719H272.107L206.636 220.202L281.633 471.966H154.64ZM312.997 0.871719H431.022V471.966H312.997V0.871719ZM459.924 296.788H567.447V419.233C567.447 431.412 574.882 437.502 589.519 437.502C604.156 437.502 610.847 431.412 610.847 419.233V355.934C610.847 336.695 597.929 314.043 572.047 287.93C521.771 239.533 490.592 207.007 478.232 190.398C465.918 173.974 459.924 155.612 459.924 135.773V75.8426C459.924 43.04 470.193 18.1727 490.452 0.871719H693.882C710.238 16.4657 718.463 38.288 718.463 66.5232V158.749H610.847V60.5255C610.847 49.9604 605.085 44.5625 593.329 44.5625C579.528 44.5625 572.651 54.9431 572.651 75.4274L574.928 110.122C574.928 129.914 588.264 153.074 614.796 179.326C663.865 226.2 695.323 258.956 708.519 277.549C721.994 296.096 728.639 317.226 728.639 340.709V408.806C728.639 434.504 722.598 455.634 710.656 472.012H474.561C464.849 457.802 459.97 439.901 459.97 418.494V296.834L459.924 296.788ZM759.074 296.788H866.505V419.233C866.505 431.412 873.939 437.502 888.576 437.502C903.213 437.502 909.951 431.412 909.951 419.233V355.934C909.951 336.695 897.033 314.043 871.151 287.93C820.828 239.533 789.649 207.007 777.336 190.398C765.022 173.974 759.074 155.612 759.074 135.773V75.8426C759.074 43.04 769.25 18.1727 789.649 0.871719H993.125C1009.34 16.4657 1017.57 38.288 1017.57 66.5232V158.749H909.997V60.5255C909.997 49.9604 904.142 44.5625 892.479 44.5625C878.632 44.5625 871.755 54.9431 871.755 75.4274L874.079 110.122C874.079 129.914 887.415 153.074 913.854 179.326C963.015 226.2 994.334 258.956 1007.53 277.549C1021.05 296.096 1027.6 317.226 1027.6 340.709V408.806C1027.6 434.504 1021.75 455.634 1009.71 472.012H773.572C763.86 457.802 759.074 439.901 759.074 418.494V296.788Z" fill="white"></path></svg> 